<svg xmlns="http://www.w3.org/2000/svg" xmlns:xlink="http://www.w3.org/1999/xlink" width="467" height="467" version="1.1" viewBox="0 0 467 467"><title>1111</title><desc>Created with Sketch.</desc><defs><rect id="path-1" width="465.41" height="465.41" x=".85" y=".65" rx="104.5"/><linearGradient id="linearGradient-3" x1="49.996%" x2="49.996%" y1="99.996%" y2="0%"><stop offset="0%" stop-color="#EF6876"/><stop offset="28%" stop-color="#EF6974"/><stop offset="40%" stop-color="#F06C6D"/><stop offset="48%" stop-color="#F17261"/><stop offset="56%" stop-color="#F37B4F"/><stop offset="62%" stop-color="#F58638"/><stop offset="67%" stop-color="#F7931E"/><stop offset="99%" stop-color="#F6925B"/></linearGradient><linearGradient id="linearGradient-4" x1="76.339%" x2="24.984%" y1="8.4%" y2="107.412%"><stop offset="0%" stop-color="#FCEE21"/><stop offset="88%" stop-color="#F48120"/></linearGradient><linearGradient id="linearGradient-5" x1="50%" x2="50%" y1="-.001%" y2="99.999%"><stop offset="45%" stop-color="#F0B636"/><stop offset="68%" stop-color="#F16137"/><stop offset="99%" stop-color="#F0B636"/></linearGradient><linearGradient id="linearGradient-6" x1="100%" x2="-.002%" y1="49.989%" y2="49.989%"><stop offset="0%" stop-color="#29B473"/><stop offset="64%" stop-color="#00ADEE"/><stop offset="67%" stop-color="#1CA5E5"/><stop offset="73%" stop-color="#4C97D5"/><stop offset="78%" stop-color="#738CC8"/><stop offset="84%" stop-color="#9283BE"/><stop offset="90%" stop-color="#A87DB7"/><stop offset="95%" stop-color="#B679B2"/><stop offset="100%" stop-color="#BA78B1"/></linearGradient><linearGradient id="linearGradient-7" x1="81.415%" x2="20.85%" y1="16.856%" y2="64.682%"><stop offset="23%" stop-color="#84CBA8"/><stop offset="59%" stop-color="#00ADEE"/><stop offset="94%" stop-color="#008FAF"/><stop offset="100%" stop-color="#0089A4"/></linearGradient><linearGradient id="linearGradient-8" x1="95.503%" x2="7.709%" y1="29.287%" y2="29.287%"><stop offset="0%" stop-color="#00ADEE"/><stop offset="6%" stop-color="#059FE3"/><stop offset="26%" stop-color="#1477C6"/><stop offset="46%" stop-color="#1F59AF"/><stop offset="65%" stop-color="#27439E"/><stop offset="83%" stop-color="#2C3594"/><stop offset="100%" stop-color="#2E3191"/></linearGradient><linearGradient id="linearGradient-9" x1="99.997%" x2="0%" y1="49.995%" y2="49.995%"><stop offset="0%" stop-color="#EB008B"/><stop offset="100%" stop-color="#B778B1"/></linearGradient></defs><g id="Page-1" fill="none" fill-rule="evenodd" stroke="none" stroke-width="1"><g id="1111"><g id="Clipped"><mask id="mask-2" fill="#fff"><use xlink:href="#path-1"/></mask><g id="Group" fill-rule="nonzero" mask="url(#mask-2)"><g id="Path"><path fill="url(#linearGradient-3)" d="M547.75,95.77 C850,95.77 1095,258.83 1095,460 C1095,661.17 850,824.2 547.8,824.2 C245.6,824.2 -13.58,823.89 0.61,460 C12.4,156 245.54,95.77 547.75,95.77 Z" transform="translate(-360.000000, -170.000000)"/><path fill="#FFDC00" d="M929.53,289.37 C926.39,258.24 917,213 887.7,166.84 C801.17,30.29 614.54,0.91 607.64,13.33 C602.85,22 685.5,49.46 770.33,140 C815.372072,188.187963 851.562981,243.941801 877.24,304.7" transform="translate(-360.000000, -170.000000)"/><path fill="#F6D10C" d="M952.77,289.37 C949.63,258.24 940.2,213 910.93,166.84 C824.4,30.29 637.78,0.91 630.93,13.33 C626.08,22 708.74,49.46 793.56,140 C838.60604,188.18486 874.797431,243.93944 900.47,304.7" transform="translate(-360.000000, -170.000000)"/><path fill="url(#linearGradient-4)" d="M622.4,788 C1058.17,604.44 996.4,207.3 967.12,161.11 C880.59,24.55 587.81,0.91 580.91,13.33 C576.12,21.96 621.56,25.33 723.4,96.17 C838.69,176.38 998.4,489.17 481.4,658.17 C431.59,674.45 341.4,694 289.4,769" transform="translate(-360.000000, -170.000000)"/><path fill="url(#linearGradient-5)" d="M954.11,160.94 C987.62,317.18 957.06,375.16 955.55,416.53 C952.4,503 843,688.7 673.4,659 C496.4,628 306.26,845.54 334.55,888.21 C348.44,909.16 579.75,974.08 740.6,800.38 C756.1,783.64 850.47,752.09 886.94,717.16 C1013.61,595.86 981.29,580.75 1014.77,539 C1055.82,487.75 1017.08,372.72 996.77,275.34" transform="translate(-360.000000, -170.000000)"/><path fill="url(#linearGradient-6)" d="M273.38,239.47 C273.38,127.1 436.36,119 539.2,119 C642.04,119 825.39,74.62 805.4,185.2 C760.4,434.2 610.75,594.2 539.2,525.94 C429.09,420.88 273.38,351.84 273.38,239.47 Z" transform="translate(-360.000000, -170.000000)"/><path fill="url(#linearGradient-7)" d="M324.4,167.17 C324.4,54.8 493.71,79.76 577.33,79.76 C660.95,79.76 791.4,84.8 791.4,197.17 C791.4,309.54 666.02,446.17 582.4,446.17 C498.78,446.17 324.4,279.54 324.4,167.17 Z" transform="translate(-360.000000, -170.000000)"/><path fill="url(#linearGradient-8)" d="M324.4,167.17 C324.4,54.8 493.71,79.76 577.33,79.76 C660.95,79.76 791.4,84.8 791.4,197.17 C791.4,309.54 666.02,446.17 582.4,446.17 C498.78,446.17 324.4,279.54 324.4,167.17 Z" transform="translate(-360.000000, -170.000000)"/><path fill="url(#linearGradient-9)" d="M432.4,132.17 C432.4,79.36 482.4,0 529.4,0 C576.4,0 662.64,66.73 669.4,119.17 C675.74,168.3 591.4,246.17 520.14,245.36 C473.24,244.82 432.4,185 432.4,132.17 Z" transform="translate(-360.000000, -170.000000)"/></g></g></g><path id="Shape" fill="#FFF" fill-rule="nonzero" d="M130.4,190.5 L130.4,152 C148.84,151.2 161.75,150.01 169.13,148.43 C180.89,145.91 190.456667,140.88 197.83,133.34 C202.876667,128.18 206.703333,121.296667 209.31,112.69 C210.81,107.53 211.56,103.693333 211.56,101.18 L260.47,101.18 L260.47,389 L200.47,389 L200.47,190.5 L130.4,190.5 Z M285.54,167.13 L285.54,148.43 L329.26,89.75 L347.53,89.75 L347.53,150.3 L360.9,150.3 L360.9,167.13 L347.53,167.13 L347.53,190.43 L328.11,190.43 L328.11,167.13 L285.54,167.13 Z M327.68,115.35 L301.68,150.35 L328.14,150.35 L328.14,115.35 L327.68,115.35 Z"/></g></g></svg>